Patient4_TMGait_0pt7_01_right_44_EMG.mot
version=1
nRows=13
nColumns=33
inDegrees=no
endheader
time	1LAddLong	2LGlutMax	3LGlutMed	4LIliopsoas	5LSemiMemb	6LBicFemLong	7LRecFem	8LVastMed	9LVastLat	10LGasMed	11LTibAnt	12lTibPost	13LPeroneusLong	14LSol	15LExtDigLong	16LFlexDigLong	17RAddLong	18RGlutMax	19RGlutMed	20RIliopsoas	21RSemiMemb	22RBicFemLong	23RRecFem	24RVastMed	25RVastLat	26RGasMed	27RTibAnt	28RTibPost	29RPeroneusLong	30RSol	31RExtDigLong	32RFlexDigLong
51.245	-0.000763	0.13702	-0.000458	-0.007324	0.058899	-1.0013	-0.084686	-0.010681	-0.097961	-0.035706	0.15305	-0.000305	0.35873	0.00412	0.14099	0.009613	-0.014954	-0.027466	0.25909	0.049286	0.073853	-0.2005	-0.38437	-0.088348	-0.029297	-0.005341	0.46768	-0.002441	-0.037079	0.083008	-0.003815	-0.010376
51.246	0.014191	0.2359	0.077057	-0.020447	0.20416	-0.8934	-0.045624	-0.019684	-0.086365	-0.042114	0.22461	0.007324	0.23041	0.08728	0.1236	0.020752	-0.033264	-0.002594	0.21088	0.021667	0.12299	-0.16815	-0.38864	-0.052795	-0.026703	-0.007019	0.31708	-0.003357	-0.21606	-0.033722	-0.008545	-0.010834
51.247	0.033264	0.13184	0.037079	-0.007324	0.34485	-0.67459	-0.007172	-0.016327	-0.008545	0	0.005646	0.006104	0.023346	0.079041	0.23834	0.016174	-0.041656	0.011749	0.20584	-0.060272	0.10391	-0.14038	-0.41046	0.00473	-0.008392	0.003357	-0.10468	0.000305	0.2536	-0.075226	-0.004578	-0.007324
51.248	0.034637	0.10834	0.10651	0.003204	0.35446	-0.84579	0.034943	-0.008087	0.091095	0.003815	-0.13473	0.007019	-0.16113	0.11566	0.13702	0.026855	-0.045471	-0.050812	0.21652	-0.040436	0.09964	-0.19287	-0.42145	-0.010834	0.003052	0.005188	-0.5632	-0.004425	0.87585	-0.052185	-0.003357	-0.001831
51.249	0.037994	0.17807	0.15213	0.013275	0.26001	-0.62714	0.072784	-0.007019	0.098419	-0.007935	-0.12482	-0.003204	-0.16708	0.11978	0.76538	0.027313	-0.016174	-0.10742	0.19623	-0.10468	0.10773	-0.1973	-0.44754	0.002289	-0.001373	-0.001526	-0.63248	-0.001831	0.029297	-0.12955	-0.002899	-0.002136
51.25	0.036926	0.31067	0.24292	-0.005798	0.15717	-0.28183	0.024109	0.001373	0.077209	0.038452	-0.035706	0.005188	-0.002289	0.22247	0.89829	0.036316	-0.011902	-0.11139	0.086212	-0.003815	0.112	-0.16022	-0.45639	0.079803	0.026855	0.000153	-0.27802	-0.002289	-1.0144	-0.18448	-0.000305	-0.014038
51.251	0.03067	0.39978	0.23132	-0.008545	0.083466	-0.23972	0.013123	0.000763	0.15305	0.10178	-0.098724	0.001984	0.1181	0.24399	0.071411	0.019684	0.014954	-0.075226	-0.014191	0.092163	0.12711	-0.14648	-0.48599	0.040283	0.028076	0.000916	0.026398	-0.00061	-0.00946	-0.16739	-0.004883	-0.017548
51.252	0.027313	0.31677	0.19699	0.011597	0.053558	-0.15457	-0.035553	0.010834	0.18036	0.12848	-0.13107	0.000458	0.16327	0.14694	-0.7988	0.01236	0.02594	-0.056152	-0.072784	0.16769	0.13001	-0.16663	-0.46493	0.11368	0.005646	-0.015106	-0.13046	-0.007782	1.0051	-0.008545	0.000916	-0.022278
51.253	0.02533	0.21164	0.30746	0.017242	0.057983	0.051575	-0.041962	0.01709	0.18585	0.14679	0.12848	0.007324	0.075836	0.03891	-0.84198	-0.007782	-0.019073	-0.10086	0.066071	0.11978	0.11536	-0.2002	-0.43808	0.081177	-0.007935	-0.009766	-0.27283	0.000153	1.1714	-0.014343	-0.002594	-0.012665
51.254	0.020905	0.23758	0.27725	0.008392	0.068359	-0.1326	-0.15823	0.007324	0.21179	0.070953	0.15243	0.002289	0.023041	0.082703	-0.64377	-0.001068	-0.070496	-0.14923	0.20645	0.001984	0.12192	-0.21988	-0.45258	0.083466	-0.020447	-0.011139	-0.097198	-0.001526	-1.2732	0.016022	-0.000305	-0.015869
51.255	0.014038	0.16098	0.081482	-0.003815	0.038605	-0.16037	-0.21423	0.019073	0.11551	-0.18082	0.003052	-0.002899	-0.0383	0.075378	-0.4628	0.012512	-0.11597	-0.16037	0.13336	-0.046234	0.10895	-0.25009	-0.43732	0.055084	-0.022278	-0.010376	-0.18188	0.001068	1.0579	-0.001221	-0.003357	-0.02655
51.256	-0.007629	0.20325	0.073395	-0.003357	0.011292	0.04776	-0.072327	-0.005035	0.022125	-0.28153	-0.097961	0.000916	0.074158	0.010071	-0.093231	0.016022	-0.13931	-0.090485	0.034027	-0.089417	0.068359	-0.23911	-0.47623	0.027008	-0.01358	0.001526	-0.18173	-0.002136	2.7081	-0.007324	-0.005798	-0.029297
51.257	-0.025787	0.25894	0.040436	-0.005646	0.000153	0.014343	0.062256	-0.011444	-0.089417	-0.18158	-0.091095	-0.000458	0.010834	-0.12589	-0.56213	0.009918	-0.12894	-0.062408	0.036163	-0.083923	0.022125	-0.25543	-0.46036	0.041962	-0.024872	0.002441	0.17425	0.000763	0.68497	-0.14023	-0.000305	-0.030518
